# xmcd
#
# Track frame offsets:
#	150
#	22350
#	31029
#	49056
#	70274
#	83993
#	100749
#	117523
#	131852
#	146038
#	168148
#	180986
#	196032
#
# Disc length: 2915 seconds
#
# Revision: 0
# Processed by: cddbd v1.5.1PL0 Copyright (c) Steve Scherf et al.
# Submitted via: audiograbber 1.83.01
#
DISCID=b00b610d
DTITLE=Aleixo Antonio - Sonho De Imigrador
DYEAR=2005
DGENRE=Pop
TTITLE0=O Dizeu
TTITLE1=Roçado
TTITLE2=Minas
TTITLE3=Tropeçar
TTITLE4=Internet
TTITLE5=Mazacafe
TTITLE6=Carente Demais
TTITLE7=Suvela
TTITLE8=Disfarça
TTITLE9=Passo A Passo
TTITLE10=Sonhar
TTITLE11=Sonho De Imigrador
TTITLE12=Serras
EXTD=
EXTT0=
EXTT1=
EXTT2=
EXTT3=
EXTT4=
EXTT5=
EXTT6=
EXTT7=
EXTT8=
EXTT9=
EXTT10=
EXTT11=
EXTT12=
PLAYORDER=
